<?xml version="1.0" encoding="UTF-8"?>
<!DOCTYPE svg PUBLIC "-//W3C//DTD SVG 1.1//EN" "http://www.w3.org/Graphics/SVG/1.1/DTD/svg11.dtd">
<svg xmlns="http://www.w3.org/2000/svg" version="1.1" viewBox="0 0 73 73" stroke="none">
	<rect width="100%" height="100%" fill="#ffffff"/>
	<path d="M20,20h7v1h-7z M29,20h2v1h-2z M32,20h3v1h-3z M36,20h1v4h-1z M37,20h1v1h-1z M39,20h1v1h-1z M41,20h1v4h-1z M43,20h2v1h-2z M46,20h7v1h-7z M20,21h1v6h-1z M26,21h1v6h-1z M29,21h1v1h-1z M33,21h3v1h-3z M42,21h1v1h-1z M44,21h1v1h-1z M46,21h1v6h-1z M52,21h1v6h-1z M22,22h3v3h-3z M28,22h1v6h-1z M30,22h4v1h-4z M35,22h1v4h-1z M39,22h1v1h-1z M43,22h1v1h-1z M48,22h3v3h-3z M29,23h2v1h-2z M34,23h1v1h-1z M37,23h1v1h-1z M42,23h1v4h-1z M44,23h1v1h-1z M38,24h3v1h-3z M33,25h1v1h-1z M36,25h2v1h-2z M40,25h1v4h-1z M44,25h1v2h-1z M21,26h5v1h-5z M30,26h1v2h-1z M32,26h1v1h-1z M34,26h1v1h-1z M36,26h1v1h-1z M38,26h1v3h-1z M47,26h5v1h-5z M35,27h1v2h-1z M41,27h1v1h-1z M43,27h1v3h-1z M20,28h1v1h-1z M22,28h5v1h-5z M29,28h1v1h-1z M33,28h1v1h-1z M37,28h1v3h-1z M46,28h5v1h-5z M25,29h1v1h-1z M27,29h1v1h-1z M31,29h1v1h-1z M36,29h1v1h-1z M39,29h1v1h-1z M41,29h2v1h-2z M44,29h4v1h-4z M49,29h2v1h-2z M52,29h1v1h-1z M20,30h1v1h-1z M23,30h1v2h-1z M26,30h1v1h-1z M28,30h2v2h-2z M30,30h1v1h-1z M32,30h1v3h-1z M35,30h1v1h-1z M40,30h1v1h-1z M42,30h1v3h-1z M45,30h1v3h-1z M46,30h1v1h-1z M48,30h1v3h-1z M50,30h2v1h-2z M22,31h1v1h-1z M24,31h1v1h-1z M27,31h1v1h-1z M31,31h1v1h-1z M34,31h1v1h-1z M36,31h1v1h-1z M41,31h1v5h-1z M44,31h1v2h-1z M49,31h1v5h-1z M50,31h1v1h-1z M20,32h1v2h-1z M25,32h1v4h-1z M26,32h1v1h-1z M28,32h1v1h-1z M30,32h1v1h-1z M38,32h1v2h-1z M47,32h1v1h-1z M51,32h1v3h-1z M21,33h3v1h-3z M29,33h1v4h-1z M31,33h1v4h-1z M34,33h3v1h-3z M39,33h2v1h-2z M46,33h1v1h-1z M52,33h1v1h-1z M21,34h1v2h-1z M26,34h1v1h-1z M28,34h1v3h-1z M30,34h1v1h-1z M32,34h1v2h-1z M50,34h1v2h-1z M20,35h1v2h-1z M33,35h1v1h-1z M36,35h1v1h-1z M38,35h1v3h-1z M40,35h1v2h-1z M44,35h2v1h-2z M47,35h1v3h-1z M24,36h1v1h-1z M26,36h1v1h-1z M30,36h1v1h-1z M37,36h1v4h-1z M43,36h1v2h-1z M48,36h1v1h-1z M52,36h1v2h-1z M21,37h3v1h-3z M32,37h1v3h-1z M33,37h1v1h-1z M36,37h1v1h-1z M39,37h1v1h-1z M41,37h1v4h-1z M44,37h2v2h-2z M46,37h1v1h-1z M49,37h3v1h-3z M20,38h1v7h-1z M21,38h1v1h-1z M23,38h4v1h-4z M31,38h1v2h-1z M35,38h1v1h-1z M40,38h1v2h-1z M48,38h1v3h-1z M50,38h2v1h-2z M23,39h1v2h-1z M25,39h1v1h-1z M29,39h1v3h-1z M36,39h1v2h-1z M38,39h1v1h-1z M42,39h2v2h-2z M45,39h1v1h-1z M49,39h1v3h-1z M50,39h1v1h-1z M22,40h1v2h-1z M24,40h1v1h-1z M26,40h1v1h-1z M34,40h1v1h-1z M44,40h1v1h-1z M47,40h1v1h-1z M52,40h1v2h-1z M27,41h1v1h-1z M30,41h1v1h-1z M33,41h1v4h-1z M35,41h1v4h-1z M37,41h2v1h-2z M40,41h1v4h-1z M42,41h1v2h-1z M45,41h1v4h-1z M46,41h1v1h-1z M26,42h1v1h-1z M28,42h1v1h-1z M31,42h1v2h-1z M36,42h2v1h-2z M48,42h1v1h-1z M50,42h2v1h-2z M23,43h2v1h-2z M30,43h1v2h-1z M32,43h1v2h-1z M39,43h1v3h-1z M41,43h1v1h-1z M46,43h1v2h-1z M50,43h1v1h-1z M52,43h1v1h-1z M22,44h2v1h-2z M26,44h1v1h-1z M28,44h2v1h-2z M37,44h1v1h-1z M43,44h2v1h-2z M47,44h3v1h-3z M51,44h1v1h-1z M28,45h1v1h-1z M31,45h1v3h-1z M36,45h1v3h-1z M41,45h2v1h-2z M44,45h1v4h-1z M48,45h1v5h-1z M50,45h1v3h-1z M52,45h1v1h-1z M20,46h7v1h-7z M29,46h1v2h-1z M32,46h1v5h-1z M34,46h2v1h-2z M38,46h1v1h-1z M42,46h2v1h-2z M46,46h1v1h-1z M51,46h1v1h-1z M20,47h1v6h-1z M26,47h1v6h-1z M28,47h1v4h-1z M33,47h1v2h-1z M35,47h1v3h-1z M39,47h1v2h-1z M41,47h1v3h-1z M52,47h1v3h-1z M22,48h3v3h-3z M30,48h1v1h-1z M38,48h1v1h-1z M40,48h1v5h-1z M42,48h1v1h-1z M45,48h3v1h-3z M49,48h1v4h-1z M51,48h1v2h-1z M29,49h1v1h-1z M31,49h1v1h-1z M34,49h1v1h-1z M36,49h1v1h-1z M47,49h1v4h-1z M30,50h1v3h-1z M37,50h2v1h-2z M44,50h3v2h-3z M34,51h1v1h-1z M36,51h1v2h-1z M38,51h1v1h-1z M41,51h1v1h-1z M48,51h1v2h-1z M50,51h1v1h-1z M21,52h5v1h-5z M28,52h1v1h-1z M31,52h1v1h-1z M33,52h1v1h-1z M37,52h1v1h-1z M43,52h3v1h-3z M51,52h1v1h-1z" fill="#000000"/>
</svg>
