<?xml version="1.0" encoding="UTF-8"?>
<!DOCTYPE svg PUBLIC "-//W3C//DTD SVG 1.1//EN" "http://www.w3.org/Graphics/SVG/1.1/DTD/svg11.dtd">
<svg xmlns="http://www.w3.org/2000/svg" version="1.1" viewBox="0 0 81 81" stroke="none">
	<rect width="100%" height="100%" fill="#ffffff"/>
	<path d="M20,20h7v1h-7z M28,20h1v1h-1z M30,20h2v1h-2z M33,20h3v1h-3z M37,20h2v1h-2z M43,20h2v1h-2z M46,20h2v1h-2z M54,20h7v1h-7z M20,21h1v6h-1z M26,21h1v6h-1z M31,21h1v1h-1z M33,21h1v1h-1z M35,21h2v2h-2z M37,21h1v1h-1z M39,21h1v1h-1z M44,21h1v4h-1z M45,21h1v1h-1z M49,21h1v4h-1z M51,21h2v1h-2z M54,21h1v6h-1z M60,21h1v6h-1z M22,22h3v3h-3z M29,22h2v1h-2z M34,22h1v5h-1z M41,22h1v2h-1z M43,22h1v1h-1z M46,22h1v3h-1z M48,22h1v1h-1z M51,22h1v1h-1z M56,22h3v3h-3z M28,23h1v6h-1z M30,23h1v5h-1z M31,23h2v1h-2z M37,23h2v1h-2z M42,23h1v2h-1z M45,23h1v1h-1z M47,23h1v2h-1z M50,23h1v2h-1z M52,23h1v2h-1z M33,24h1v1h-1z M36,24h1v1h-1z M38,24h1v1h-1z M40,24h1v3h-1z M43,24h1v1h-1z M35,25h1v1h-1z M39,25h1v1h-1z M51,25h1v1h-1z M21,26h5v1h-5z M32,26h1v2h-1z M36,26h1v3h-1z M38,26h1v2h-1z M42,26h1v1h-1z M44,26h1v1h-1z M46,26h1v1h-1z M48,26h1v1h-1z M50,26h1v1h-1z M52,26h1v3h-1z M55,26h5v1h-5z M29,27h1v3h-1z M31,27h1v4h-1z M33,27h1v2h-1z M37,27h1v2h-1z M39,27h1v2h-1z M41,27h1v2h-1z M43,27h1v1h-1z M49,27h1v2h-1z M20,28h1v1h-1z M24,28h1v1h-1z M26,28h2v1h-2z M34,28h2v2h-2z M42,28h1v1h-1z M44,28h1v1h-1z M51,28h1v1h-1z M53,28h5v1h-5z M60,28h1v3h-1z M23,29h1v2h-1z M30,29h1v1h-1z M32,29h1v2h-1z M43,29h1v2h-1z M45,29h3v1h-3z M50,29h1v1h-1z M54,29h1v1h-1z M56,29h2v1h-2z M25,30h4v1h-4z M34,30h1v1h-1z M37,30h1v7h-1z M38,30h1v3h-1z M40,30h1v2h-1z M44,30h1v3h-1z M47,30h1v6h-1z M48,30h1v1h-1z M52,30h1v2h-1z M55,30h1v1h-1z M21,31h1v1h-1z M24,31h2v1h-2z M28,31h3v1h-3z M33,31h1v2h-1z M36,31h1v1h-1z M39,31h1v1h-1z M41,31h2v1h-2z M46,31h1v2h-1z M49,31h1v2h-1z M51,31h1v1h-1z M53,31h1v2h-1z M57,31h1v1h-1z M23,32h1v1h-1z M26,32h2v1h-2z M29,32h3v1h-3z M41,32h1v1h-1z M21,33h1v3h-1z M24,33h1v2h-1z M28,33h1v1h-1z M30,33h2v2h-2z M34,33h1v1h-1z M39,33h2v1h-2z M48,33h1v1h-1z M50,33h1v3h-1z M51,33h1v1h-1z M56,33h2v1h-2z M59,33h2v2h-2z M20,34h1v2h-1z M25,34h3v1h-3z M29,34h1v3h-1z M33,34h1v2h-1z M38,34h1v2h-1z M40,34h2v1h-2z M45,34h2v1h-2z M49,34h1v3h-1z M52,34h4v1h-4z M23,35h1v2h-1z M25,35h1v2h-1z M30,35h1v1h-1z M32,35h1v1h-1z M35,35h2v1h-2z M41,35h1v3h-1z M44,35h1v2h-1z M55,35h1v5h-1z M57,35h1v1h-1z M60,35h1v1h-1z M22,36h1v6h-1z M26,36h1v1h-1z M28,36h1v3h-1z M34,36h1v2h-1z M36,36h1v3h-1z M39,36h2v1h-2z M43,36h1v7h-1z M48,36h1v2h-1z M51,36h1v1h-1z M59,36h1v1h-1z M20,37h1v5h-1z M27,37h1v3h-1z M30,37h3v1h-3z M38,37h1v1h-1z M42,37h1v1h-1z M46,37h1v7h-1z M47,37h1v3h-1z M50,37h1v3h-1z M53,37h2v1h-2z M56,37h3v1h-3z M60,37h1v6h-1z M21,38h1v2h-1z M23,38h1v4h-1z M26,38h1v1h-1z M31,38h3v1h-3z M35,38h1v2h-1z M37,38h1v2h-1z M40,38h1v2h-1z M44,38h2v1h-2z M49,38h1v2h-1z M54,38h1v2h-1z M57,38h1v1h-1z M30,39h2v1h-2z M33,39h1v1h-1z M38,39h2v2h-2z M42,39h1v2h-1z M44,39h1v1h-1z M51,39h2v2h-2z M25,40h2v1h-2z M28,40h1v2h-1z M30,40h1v1h-1z M32,40h1v2h-1z M34,40h1v1h-1z M45,40h1v3h-1z M56,40h1v2h-1z M59,40h1v1h-1z M21,41h1v1h-1z M24,41h1v7h-1z M29,41h1v1h-1z M31,41h1v1h-1z M35,41h2v2h-2z M40,41h2v1h-2z M44,41h1v1h-1z M47,41h2v2h-2z M49,41h1v1h-1z M52,41h4v1h-4z M58,41h1v1h-1z M25,42h3v1h-3z M30,42h1v3h-1z M41,42h1v4h-1z M50,42h1v2h-1z M52,42h1v1h-1z M54,42h1v2h-1z M27,43h3v1h-3z M31,43h1v1h-1z M33,43h1v2h-1z M36,43h2v1h-2z M39,43h2v1h-2z M44,43h1v2h-1z M48,43h2v1h-2z M55,43h3v1h-3z M21,44h2v1h-2z M25,44h2v1h-2z M28,44h2v2h-2z M32,44h1v1h-1z M34,44h2v1h-2z M37,44h1v1h-1z M42,44h2v1h-2z M49,44h1v1h-1z M51,44h2v1h-2z M55,44h1v1h-1z M57,44h4v1h-4z M25,45h1v1h-1z M31,45h1v2h-1z M36,45h1v1h-1z M38,45h1v1h-1z M40,45h1v2h-1z M43,45h1v2h-1z M45,45h1v2h-1z M47,45h1v3h-1z M48,45h1v1h-1z M50,45h1v2h-1z M52,45h1v4h-1z M53,45h2v1h-2z M56,45h1v2h-1z M58,45h3v1h-3z M20,46h3v1h-3z M26,46h2v1h-2z M29,46h1v3h-1z M46,46h1v3h-1z M54,46h2v1h-2z M59,46h2v1h-2z M21,47h3v2h-3z M25,47h1v3h-1z M28,47h1v1h-1z M32,47h2v1h-2z M35,47h1v2h-1z M37,47h3v1h-3z M41,47h2v1h-2z M44,47h1v1h-1z M48,47h2v1h-2z M51,47h1v1h-1z M53,47h1v6h-1z M54,47h1v1h-1z M57,47h1v1h-1z M60,47h1v1h-1z M20,48h1v2h-1z M26,48h1v1h-1z M30,48h2v1h-2z M33,48h2v1h-2z M36,48h2v1h-2z M39,48h1v4h-1z M40,48h2v1h-2z M43,48h1v1h-1z M49,48h2v2h-2z M55,48h1v3h-1z M59,48h1v3h-1z M22,49h1v4h-1z M28,49h1v2h-1z M30,49h1v1h-1z M34,49h1v1h-1z M36,49h1v1h-1z M38,49h1v6h-1z M42,49h1v2h-1z M44,49h1v2h-1z M47,49h2v2h-2z M51,49h1v1h-1z M56,49h1v1h-1z M58,49h1v1h-1z M60,49h1v3h-1z M23,50h1v3h-1z M26,50h2v1h-2z M29,50h1v6h-1z M31,50h3v1h-3z M35,50h1v3h-1z M37,50h1v4h-1z M43,50h1v2h-1z M50,50h1v1h-1z M52,50h1v7h-1z M25,51h1v2h-1z M33,51h2v1h-2z M40,51h2v2h-2z M47,51h1v1h-1z M49,51h1v3h-1z M51,51h1v7h-1z M57,51h1v1h-1z M20,52h2v1h-2z M24,52h1v1h-1z M26,52h1v1h-1z M32,52h1v2h-1z M36,52h1v1h-1z M42,52h1v1h-1z M44,52h1v1h-1z M54,52h3v1h-3z M28,53h1v2h-1z M43,53h1v3h-1z M47,53h2v2h-2z M50,53h1v3h-1z M56,53h5v1h-5z M20,54h7v1h-7z M30,54h2v1h-2z M33,54h2v1h-2z M41,54h2v1h-2z M45,54h1v3h-1z M46,54h1v1h-1z M54,54h1v1h-1z M56,54h1v3h-1z M58,54h3v1h-3z M20,55h1v6h-1z M26,55h1v6h-1z M31,55h2v2h-2z M35,55h2v1h-2z M39,55h2v2h-2z M41,55h1v1h-1z M44,55h1v3h-1z M49,55h1v1h-1z M59,55h2v2h-2z M22,56h3v3h-3z M28,56h1v1h-1z M33,56h2v3h-2z M36,56h1v1h-1z M47,56h1v4h-1z M48,56h1v1h-1z M53,56h3v1h-3z M30,57h1v1h-1z M32,57h1v2h-1z M37,57h1v3h-1z M38,57h1v1h-1z M40,57h1v1h-1z M42,57h2v1h-2z M46,57h1v1h-1z M50,57h1v1h-1z M55,57h1v1h-1z M59,57h1v1h-1z M29,58h1v2h-1z M35,58h2v1h-2z M41,58h1v3h-1z M43,58h1v1h-1z M53,58h1v3h-1z M57,58h1v3h-1z M60,58h1v2h-1z M33,59h1v1h-1z M35,59h1v1h-1z M38,59h1v1h-1z M49,59h2v1h-2z M52,59h1v2h-1z M54,59h2v2h-2z M59,59h1v2h-1z M21,60h5v1h-5z M28,60h1v1h-1z M30,60h3v1h-3z M36,60h1v1h-1z M39,60h1v1h-1z M42,60h1v1h-1z M44,60h1v1h-1z M46,60h1v1h-1z M49,60h1v1h-1z M56,60h1v1h-1z M58,60h1v1h-1z" fill="#000000"/>
</svg>
