<?xml version="1.0" encoding="utf-8"?>
<!-- Generator: Adobe Illustrator 16.0.0, SVG Export Plug-In . SVG Version: 6.00 Build 0)  -->
<!DOCTYPE svg PUBLIC "-//W3C//DTD SVG 1.1//EN" "http://www.w3.org/Graphics/SVG/1.1/DTD/svg11.dtd">
<svg version="1.1" id="Capa_1" xmlns="http://www.w3.org/2000/svg" xmlns:xlink="http://www.w3.org/1999/xlink" x="0px" y="0px"
	 width="456.449px" height="507.45px" viewBox="25.5 0 456.449 507.45" enable-background="new 25.5 0 456.449 507.45"
	 xml:space="preserve">
<g>
	<g id="share-alt">
		<path fill="#FFFFFF" d="M25.5,252.45c0,43.349,33.15,76.5,76.5,76.5c20.4,0,38.25-7.65,51-20.4l181.05,107.102
			c-2.55,7.648-2.55,12.75-2.55,17.85c0,40.799,33.15,73.949,73.949,73.949c40.801,0,73.951-33.15,73.951-73.949
			c0-40.801-33.15-73.951-73.951-73.951c-20.399,0-38.25,7.65-51,20.4l-181.049-107.1c2.549-5.1,2.549-12.75,2.549-17.85
			c0-5.101,0-12.75-2.549-17.851L354.45,132.6c12.75,12.75,30.601,20.4,51,20.4c43.351,0,76.5-33.15,76.5-76.5S448.8,0,405.45,0
			c-43.35,0-76.5,33.15-76.5,76.5c0,5.1,0,12.75,2.551,17.85L150.45,198.9c-12.75-12.75-30.6-20.4-51-20.4
			C56.1,178.5,25.5,209.1,25.5,252.45z"/>
	</g>
</g>
</svg>
